<?xml version="1.0" encoding="UTF-8" standalone="no"?>
<!DOCTYPE svg PUBLIC "-//W3C//DTD SVG 1.1//EN" "http://www.w3.org/Graphics/SVG/1.1/DTD/svg11.dtd">
<!-- Generated by graphviz version 2.44.2~dev.20200908.1456 (20200908.1456) -->
<!-- Title: G Pages: 1 -->
<svg width="2048pt" height="354pt" viewBox="0.00 0.00 2048.20 354.42" xmlns="http://www.w3.org/2000/svg" xmlns:xlink="http://www.w3.org/1999/xlink">
	<g id="graph0" class="graph" transform="scale(1 1) rotate(0) translate(21.6 332.82)">
		<title>
			G
		</title>
		<polygon fill="#111111" stroke="transparent" points="-21.6,21.6 -21.6,-332.82 2026.6,-332.82 2026.6,21.6 -21.6,21.6" />
		<!-- .internal/baseAt.js -->
		<g id="node1" class="node">
			<title>
				.internal/baseAt.js
			</title>
			<path fill="none" stroke="#c6c5fe" d="M566.33,-267C566.33,-267 453.67,-267 453.67,-267 449.83,-267 446,-263.17 446,-259.33 446,-259.33 446,-251.67 446,-251.67 446,-247.83 449.83,-244 453.67,-244 453.67,-244 566.33,-244 566.33,-244 570.17,-244 574,-247.83 574,-251.67 574,-251.67 574,-259.33 574,-259.33 574,-263.17 570.17,-267 566.33,-267" />
			<text text-anchor="middle" x="510" y="-251.8" font-family="Arial" font-size="14.00" fill="#c6c5fe">
				.internal/baseAt.js
			</text>
		</g>
		<!-- get.js -->
		<g id="node2" class="node">
			<title>
				get.js
			</title>
			<path fill="none" stroke="#c6c5fe" d="M979.83,-266C979.83,-266 941.17,-266 941.17,-266 937.33,-266 933.5,-262.17 933.5,-258.33 933.5,-258.33 933.5,-250.67 933.5,-250.67 933.5,-246.83 937.33,-243 941.17,-243 941.17,-243 979.83,-243 979.83,-243 983.67,-243 987.5,-246.83 987.5,-250.67 987.5,-250.67 987.5,-258.33 987.5,-258.33 987.5,-262.17 983.67,-266 979.83,-266" />
			<text text-anchor="middle" x="960.5" y="-250.8" font-family="Arial" font-size="14.00" fill="#c6c5fe">
				get.js
			</text>
		</g>
		<!-- .internal/baseAt.js&#45;&gt;get.js -->
		<g id="edge1" class="edge">
			<title>
				.internal/baseAt.js:&#45;&gt;get.js:
			</title>
			<path fill="none" stroke="#757575" d="M574.31,-255.36C669.67,-255.15 847.09,-254.75 923.25,-254.58" />
			<polygon fill="#757575" stroke="#757575" points="923.31,-258.08 933.3,-254.56 923.29,-251.08 923.31,-258.08" />
		</g>
		<!-- .internal/baseGet.js -->
		<g id="node4" class="node">
			<title>
				.internal/baseGet.js
			</title>
			<path fill="none" stroke="#c6c5fe" d="M1230.33,-186C1230.33,-186 1107.67,-186 1107.67,-186 1103.83,-186 1100,-182.17 1100,-178.33 1100,-178.33 1100,-170.67 1100,-170.67 1100,-166.83 1103.83,-163 1107.67,-163 1107.67,-163 1230.33,-163 1230.33,-163 1234.17,-163 1238,-166.83 1238,-170.67 1238,-170.67 1238,-178.33 1238,-178.33 1238,-182.17 1234.17,-186 1230.33,-186" />
			<text text-anchor="middle" x="1169" y="-170.8" font-family="Arial" font-size="14.00" fill="#c6c5fe">
				.internal/baseGet.js
			</text>
		</g>
		<!-- get.js&#45;&gt;.internal/baseGet.js -->
		<g id="edge26" class="edge">
			<title>
				get.js:&#45;&gt;.internal/baseGet.js:
			</title>
			<path fill="none" stroke="#757575" d="M987.65,-244.37C1023.22,-230.59 1087.15,-205.82 1128.55,-189.78" />
			<polygon fill="#757575" stroke="#757575" points="1129.99,-192.98 1138.05,-186.1 1127.46,-186.45 1129.99,-192.98" />
		</g>
		<!-- .internal/baseFindIndex.js -->
		<g id="node3" class="node">
			<title>
				.internal/baseFindIndex.js
			</title>
			<path fill="none" stroke="#cfffac" d="M813.33,-145C813.33,-145 650.67,-145 650.67,-145 646.83,-145 643,-141.17 643,-137.33 643,-137.33 643,-129.67 643,-129.67 643,-125.83 646.83,-122 650.67,-122 650.67,-122 813.33,-122 813.33,-122 817.17,-122 821,-125.83 821,-129.67 821,-129.67 821,-137.33 821,-137.33 821,-141.17 817.17,-145 813.33,-145" />
			<text text-anchor="middle" x="732" y="-129.8" font-family="Arial" font-size="14.00" fill="#cfffac">
				.internal/baseFindIndex.js
			</text>
		</g>
		<!-- .internal/castPath.js -->
		<g id="node5" class="node">
			<title>
				.internal/castPath.js
			</title>
			<path fill="none" stroke="#c6c5fe" d="M1404.33,-170C1404.33,-170 1281.67,-170 1281.67,-170 1277.83,-170 1274,-166.17 1274,-162.33 1274,-162.33 1274,-154.67 1274,-154.67 1274,-150.83 1277.83,-147 1281.67,-147 1281.67,-147 1404.33,-147 1404.33,-147 1408.17,-147 1412,-150.83 1412,-154.67 1412,-154.67 1412,-162.33 1412,-162.33 1412,-166.17 1408.17,-170 1404.33,-170" />
			<text text-anchor="middle" x="1343" y="-154.8" font-family="Arial" font-size="14.00" fill="#c6c5fe">
				.internal/castPath.js
			</text>
		</g>
		<!-- .internal/baseGet.js&#45;&gt;.internal/castPath.js -->
		<g id="edge2" class="edge">
			<title>
				.internal/baseGet.js:&#45;&gt;.internal/castPath.js:
			</title>
			<path fill="none" stroke="#757575" d="M1238.47,-168.13C1246.73,-167.36 1255.22,-166.57 1263.6,-165.79" />
			<polygon fill="#757575" stroke="#757575" points="1264.13,-169.26 1273.76,-164.85 1263.48,-162.29 1264.13,-169.26" />
		</g>
		<!-- .internal/toKey.js -->
		<g id="node6" class="node">
			<title>
				.internal/toKey.js
			</title>
			<path fill="none" stroke="#c6c5fe" d="M1395.33,-226C1395.33,-226 1290.67,-226 1290.67,-226 1286.83,-226 1283,-222.17 1283,-218.33 1283,-218.33 1283,-210.67 1283,-210.67 1283,-206.83 1286.83,-203 1290.67,-203 1290.67,-203 1395.33,-203 1395.33,-203 1399.17,-203 1403,-206.83 1403,-210.67 1403,-210.67 1403,-218.33 1403,-218.33 1403,-222.17 1399.17,-226 1395.33,-226" />
			<text text-anchor="middle" x="1343" y="-210.8" font-family="Arial" font-size="14.00" fill="#c6c5fe">
				.internal/toKey.js
			</text>
		</g>
		<!-- .internal/baseGet.js&#45;&gt;.internal/toKey.js -->
		<g id="edge3" class="edge">
			<title>
				.internal/baseGet.js:&#45;&gt;.internal/toKey.js:
			</title>
			<path fill="none" stroke="#757575" d="M1219.75,-186.07C1239.36,-190.63 1262.05,-195.91 1282.52,-200.67" />
			<polygon fill="#757575" stroke="#757575" points="1281.83,-204.1 1292.36,-202.96 1283.42,-197.28 1281.83,-204.1" />
		</g>
		<!-- .internal/isKey.js -->
		<g id="node19" class="node">
			<title>
				.internal/isKey.js
			</title>
			<path fill="none" stroke="#c6c5fe" d="M1581.83,-192C1581.83,-192 1478.17,-192 1478.17,-192 1474.33,-192 1470.5,-188.17 1470.5,-184.33 1470.5,-184.33 1470.5,-176.67 1470.5,-176.67 1470.5,-172.83 1474.33,-169 1478.17,-169 1478.17,-169 1581.83,-169 1581.83,-169 1585.67,-169 1589.5,-172.83 1589.5,-176.67 1589.5,-176.67 1589.5,-184.33 1589.5,-184.33 1589.5,-188.17 1585.67,-192 1581.83,-192" />
			<text text-anchor="middle" x="1530" y="-176.8" font-family="Arial" font-size="14.00" fill="#c6c5fe">
				.internal/isKey.js
			</text>
		</g>
		<!-- .internal/castPath.js&#45;&gt;.internal/isKey.js -->
		<g id="edge17" class="edge">
			<title>
				.internal/castPath.js:&#45;&gt;.internal/isKey.js:
			</title>
			<path fill="none" stroke="#757575" d="M1412.1,-166.6C1427.82,-168.47 1444.55,-170.46 1460.3,-172.33" />
			<polygon fill="#757575" stroke="#757575" points="1460.14,-175.84 1470.48,-173.54 1460.96,-168.88 1460.14,-175.84" />
		</g>
		<!-- .internal/stringToPath.js -->
		<g id="node20" class="node">
			<title>
				.internal/stringToPath.js
			</title>
			<path fill="none" stroke="#c6c5fe" d="M1604.33,-151C1604.33,-151 1455.67,-151 1455.67,-151 1451.83,-151 1448,-147.17 1448,-143.33 1448,-143.33 1448,-135.67 1448,-135.67 1448,-131.83 1451.83,-128 1455.67,-128 1455.67,-128 1604.33,-128 1604.33,-128 1608.17,-128 1612,-131.83 1612,-135.67 1612,-135.67 1612,-143.33 1612,-143.33 1612,-147.17 1608.17,-151 1604.33,-151" />
			<text text-anchor="middle" x="1530" y="-135.8" font-family="Arial" font-size="14.00" fill="#c6c5fe">
				.internal/stringToPath.js
			</text>
		</g>
		<!-- .internal/castPath.js&#45;&gt;.internal/stringToPath.js -->
		<g id="edge18" class="edge">
			<title>
				.internal/castPath.js:&#45;&gt;.internal/stringToPath.js:
			</title>
			<path fill="none" stroke="#757575" d="M1412.1,-151.51C1420.47,-150.65 1429.12,-149.76 1437.76,-148.87" />
			<polygon fill="#757575" stroke="#757575" points="1438.29,-152.33 1447.88,-147.83 1437.57,-145.37 1438.29,-152.33" />
		</g>
		<!-- isSymbol.js -->
		<g id="node22" class="node">
			<title>
				isSymbol.js
			</title>
			<path fill="none" stroke="#c6c5fe" d="M1781.33,-232C1781.33,-232 1707.67,-232 1707.67,-232 1703.83,-232 1700,-228.17 1700,-224.33 1700,-224.33 1700,-216.67 1700,-216.67 1700,-212.83 1703.83,-209 1707.67,-209 1707.67,-209 1781.33,-209 1781.33,-209 1785.17,-209 1789,-212.83 1789,-216.67 1789,-216.67 1789,-224.33 1789,-224.33 1789,-228.17 1785.17,-232 1781.33,-232" />
			<text text-anchor="middle" x="1744.5" y="-216.8" font-family="Arial" font-size="14.00" fill="#c6c5fe">
				isSymbol.js
			</text>
		</g>
		<!-- .internal/toKey.js&#45;&gt;isSymbol.js -->
		<g id="edge25" class="edge">
			<title>
				.internal/toKey.js:&#45;&gt;isSymbol.js:
			</title>
			<path fill="none" stroke="#757575" d="M1403.38,-215.39C1480.81,-216.55 1615.15,-218.57 1689.72,-219.69" />
			<polygon fill="#757575" stroke="#757575" points="1689.78,-223.19 1699.83,-219.84 1689.89,-216.19 1689.78,-223.19" />
		</g>
		<!-- .internal/baseIndexOf.js -->
		<g id="node7" class="node">
			<title>
				.internal/baseIndexOf.js
			</title>
			<path fill="none" stroke="#c6c5fe" d="M585.33,-105C585.33,-105 434.67,-105 434.67,-105 430.83,-105 427,-101.17 427,-97.33 427,-97.33 427,-89.67 427,-89.67 427,-85.83 430.83,-82 434.67,-82 434.67,-82 585.33,-82 585.33,-82 589.17,-82 593,-85.83 593,-89.67 593,-89.67 593,-97.33 593,-97.33 593,-101.17 589.17,-105 585.33,-105" />
			<text text-anchor="middle" x="510" y="-89.8" font-family="Arial" font-size="14.00" fill="#c6c5fe">
				.internal/baseIndexOf.js
			</text>
		</g>
		<!-- .internal/baseIndexOf.js&#45;&gt;.internal/baseFindIndex.js -->
		<g id="edge4" class="edge">
			<title>
				.internal/baseIndexOf.js:&#45;&gt;.internal/baseFindIndex.js:
			</title>
			<path fill="none" stroke="#757575" d="M574.34,-105.02C600.34,-109.74 630.61,-115.25 657.57,-120.15" />
			<polygon fill="#757575" stroke="#757575" points="657.26,-123.65 667.73,-122 658.52,-116.76 657.26,-123.65" />
		</g>
		<!-- .internal/baseIsNaN.js -->
		<g id="node8" class="node">
			<title>
				.internal/baseIsNaN.js
			</title>
			<path fill="none" stroke="#cfffac" d="M801.33,-104C801.33,-104 662.67,-104 662.67,-104 658.83,-104 655,-100.17 655,-96.33 655,-96.33 655,-88.67 655,-88.67 655,-84.83 658.83,-81 662.67,-81 662.67,-81 801.33,-81 801.33,-81 805.17,-81 809,-84.83 809,-88.67 809,-88.67 809,-96.33 809,-96.33 809,-100.17 805.17,-104 801.33,-104" />
			<text text-anchor="middle" x="732" y="-88.8" font-family="Arial" font-size="14.00" fill="#cfffac">
				.internal/baseIsNaN.js
			</text>
		</g>
		<!-- .internal/baseIndexOf.js&#45;&gt;.internal/baseIsNaN.js -->
		<g id="edge5" class="edge">
			<title>
				.internal/baseIndexOf.js:&#45;&gt;.internal/baseIsNaN.js:
			</title>
			<path fill="none" stroke="#757575" d="M593.23,-93.13C609.91,-93.05 627.5,-92.97 644.32,-92.89" />
			<polygon fill="#757575" stroke="#757575" points="644.7,-96.39 654.68,-92.85 644.67,-89.39 644.7,-96.39" />
		</g>
		<!-- .internal/strictIndexOf.js -->
		<g id="node9" class="node">
			<title>
				.internal/strictIndexOf.js
			</title>
			<path fill="none" stroke="#cfffac" d="M806.33,-63C806.33,-63 657.67,-63 657.67,-63 653.83,-63 650,-59.17 650,-55.33 650,-55.33 650,-47.67 650,-47.67 650,-43.83 653.83,-40 657.67,-40 657.67,-40 806.33,-40 806.33,-40 810.17,-40 814,-43.83 814,-47.67 814,-47.67 814,-55.33 814,-55.33 814,-59.17 810.17,-63 806.33,-63" />
			<text text-anchor="middle" x="732" y="-47.8" font-family="Arial" font-size="14.00" fill="#cfffac">
				.internal/strictIndexOf.js
			</text>
		</g>
		<!-- .internal/baseIndexOf.js&#45;&gt;.internal/strictIndexOf.js -->
		<g id="edge6" class="edge">
			<title>
				.internal/baseIndexOf.js:&#45;&gt;.internal/strictIndexOf.js:
			</title>
			<path fill="none" stroke="#757575" d="M571.41,-81.97C599.06,-76.69 632,-70.4 660.75,-64.91" />
			<polygon fill="#757575" stroke="#757575" points="661.56,-68.32 670.73,-63.01 660.25,-61.44 661.56,-68.32" />
		</g>
		<!-- .internal/baseIndexOfWith.js -->
		<g id="node10" class="node">
			<title>
				.internal/baseIndexOfWith.js
			</title>
			<path fill="none" stroke="#cfffac" d="M599.33,-64C599.33,-64 420.67,-64 420.67,-64 416.83,-64 413,-60.17 413,-56.33 413,-56.33 413,-48.67 413,-48.67 413,-44.83 416.83,-41 420.67,-41 420.67,-41 599.33,-41 599.33,-41 603.17,-41 607,-44.83 607,-48.67 607,-48.67 607,-56.33 607,-56.33 607,-60.17 603.17,-64 599.33,-64" />
			<text text-anchor="middle" x="510" y="-48.8" font-family="Arial" font-size="14.00" fill="#cfffac">
				.internal/baseIndexOfWith.js
			</text>
		</g>
		<!-- .internal/basePullAll.js -->
		<g id="node11" class="node">
			<title>
				.internal/basePullAll.js
			</title>
			<path fill="none" stroke="#c6c5fe" d="M369.33,-85C369.33,-85 230.67,-85 230.67,-85 226.83,-85 223,-81.17 223,-77.33 223,-77.33 223,-69.67 223,-69.67 223,-65.83 226.83,-62 230.67,-62 230.67,-62 369.33,-62 369.33,-62 373.17,-62 377,-65.83 377,-69.67 377,-69.67 377,-77.33 377,-77.33 377,-81.17 373.17,-85 369.33,-85" />
			<text text-anchor="middle" x="300" y="-69.8" font-family="Arial" font-size="14.00" fill="#c6c5fe">
				.internal/basePullAll.js
			</text>
		</g>
		<!-- .internal/basePullAll.js&#45;&gt;.internal/baseIndexOf.js -->
		<g id="edge7" class="edge">
			<title>
				.internal/basePullAll.js:&#45;&gt;.internal/baseIndexOf.js:
			</title>
			<path fill="none" stroke="#757575" d="M377.27,-80.83C390.11,-82.07 403.56,-83.36 416.76,-84.63" />
			<polygon fill="#757575" stroke="#757575" points="416.5,-88.12 426.79,-85.59 417.17,-81.15 416.5,-88.12" />
		</g>
		<!-- .internal/basePullAll.js&#45;&gt;.internal/baseIndexOfWith.js -->
		<g id="edge8" class="edge">
			<title>
				.internal/basePullAll.js:&#45;&gt;.internal/baseIndexOfWith.js:
			</title>
			<path fill="none" stroke="#757575" d="M377.27,-65.8C385.6,-64.96 394.19,-64.09 402.8,-63.22" />
			<polygon fill="#757575" stroke="#757575" points="403.31,-66.69 412.91,-62.2 402.6,-59.72 403.31,-66.69" />
		</g>
		<!-- .internal/copyArray.js -->
		<g id="node12" class="node">
			<title>
				.internal/copyArray.js
			</title>
			<path fill="none" stroke="#cfffac" d="M575.83,-23C575.83,-23 444.17,-23 444.17,-23 440.33,-23 436.5,-19.17 436.5,-15.33 436.5,-15.33 436.5,-7.67 436.5,-7.67 436.5,-3.83 440.33,0 444.17,0 444.17,0 575.83,0 575.83,0 579.67,0 583.5,-3.83 583.5,-7.67 583.5,-7.67 583.5,-15.33 583.5,-15.33 583.5,-19.17 579.67,-23 575.83,-23" />
			<text text-anchor="middle" x="510" y="-7.8" font-family="Arial" font-size="14.00" fill="#cfffac">
				.internal/copyArray.js
			</text>
		</g>
		<!-- .internal/basePullAll.js&#45;&gt;.internal/copyArray.js -->
		<g id="edge9" class="edge">
			<title>
				.internal/basePullAll.js:&#45;&gt;.internal/copyArray.js:
			</title>
			<path fill="none" stroke="#757575" d="M328.22,-61.95C350.66,-52.76 383.48,-40.06 413,-31.5 420.67,-29.28 428.76,-27.2 436.85,-25.28" />
			<polygon fill="#757575" stroke="#757575" points="437.72,-28.67 446.69,-23.03 436.16,-21.85 437.72,-28.67" />
		</g>
		<!-- map.js -->
		<g id="node13" class="node">
			<title>
				map.js
			</title>
			<path fill="none" stroke="#cfffac" d="M531.83,-146C531.83,-146 488.17,-146 488.17,-146 484.33,-146 480.5,-142.17 480.5,-138.33 480.5,-138.33 480.5,-130.67 480.5,-130.67 480.5,-126.83 484.33,-123 488.17,-123 488.17,-123 531.83,-123 531.83,-123 535.67,-123 539.5,-126.83 539.5,-130.67 539.5,-130.67 539.5,-138.33 539.5,-138.33 539.5,-142.17 535.67,-146 531.83,-146" />
			<text text-anchor="middle" x="510" y="-130.8" font-family="Arial" font-size="14.00" fill="#cfffac">
				map.js
			</text>
		</g>
		<!-- .internal/basePullAll.js&#45;&gt;map.js -->
		<g id="edge10" class="edge">
			<title>
				.internal/basePullAll.js:&#45;&gt;map.js:
			</title>
			<path fill="none" stroke="#757575" d="M330.14,-85.06C352.55,-93.67 384.42,-105.31 413,-113.5 431.64,-118.85 452.66,-123.58 470.27,-127.2" />
			<polygon fill="#757575" stroke="#757575" points="469.7,-130.66 480.2,-129.2 471.08,-123.8 469.7,-130.66" />
		</g>
		<!-- .internal/basePullAt.js -->
		<g id="node14" class="node">
			<title>
				.internal/basePullAt.js
			</title>
			<path fill="none" stroke="#c6c5fe" d="M578.33,-187C578.33,-187 441.67,-187 441.67,-187 437.83,-187 434,-183.17 434,-179.33 434,-179.33 434,-171.67 434,-171.67 434,-167.83 437.83,-164 441.67,-164 441.67,-164 578.33,-164 578.33,-164 582.17,-164 586,-167.83 586,-171.67 586,-171.67 586,-179.33 586,-179.33 586,-183.17 582.17,-187 578.33,-187" />
			<text text-anchor="middle" x="510" y="-171.8" font-family="Arial" font-size="14.00" fill="#c6c5fe">
				.internal/basePullAt.js
			</text>
		</g>
		<!-- .internal/baseUnset.js -->
		<g id="node15" class="node">
			<title>
				.internal/baseUnset.js
			</title>
			<path fill="none" stroke="#c6c5fe" d="M800.33,-186C800.33,-186 663.67,-186 663.67,-186 659.83,-186 656,-182.17 656,-178.33 656,-178.33 656,-170.67 656,-170.67 656,-166.83 659.83,-163 663.67,-163 663.67,-163 800.33,-163 800.33,-163 804.17,-163 808,-166.83 808,-170.67 808,-170.67 808,-178.33 808,-178.33 808,-182.17 804.17,-186 800.33,-186" />
			<text text-anchor="middle" x="732" y="-170.8" font-family="Arial" font-size="14.00" fill="#c6c5fe">
				.internal/baseUnset.js
			</text>
		</g>
		<!-- .internal/basePullAt.js&#45;&gt;.internal/baseUnset.js -->
		<g id="edge11" class="edge">
			<title>
				.internal/basePullAt.js:&#45;&gt;.internal/baseUnset.js:
			</title>
			<path fill="none" stroke="#757575" d="M586.1,-175.16C605.28,-175.07 626.05,-174.98 645.71,-174.89" />
			<polygon fill="#757575" stroke="#757575" points="645.89,-178.39 655.87,-174.84 645.85,-171.39 645.89,-178.39" />
		</g>
		<!-- .internal/isIndex.js -->
		<g id="node16" class="node">
			<title>
				.internal/isIndex.js
			</title>
			<path fill="none" stroke="#cfffac" d="M788.83,-227C788.83,-227 675.17,-227 675.17,-227 671.33,-227 667.5,-223.17 667.5,-219.33 667.5,-219.33 667.5,-211.67 667.5,-211.67 667.5,-207.83 671.33,-204 675.17,-204 675.17,-204 788.83,-204 788.83,-204 792.67,-204 796.5,-207.83 796.5,-211.67 796.5,-211.67 796.5,-219.33 796.5,-219.33 796.5,-223.17 792.67,-227 788.83,-227" />
			<text text-anchor="middle" x="732" y="-211.8" font-family="Arial" font-size="14.00" fill="#cfffac">
				.internal/isIndex.js
			</text>
		</g>
		<!-- .internal/basePullAt.js&#45;&gt;.internal/isIndex.js -->
		<g id="edge12" class="edge">
			<title>
				.internal/basePullAt.js:&#45;&gt;.internal/isIndex.js:
			</title>
			<path fill="none" stroke="#757575" d="M574.34,-187.02C600.34,-191.74 630.61,-197.25 657.57,-202.15" />
			<polygon fill="#757575" stroke="#757575" points="657.26,-205.65 667.73,-204 658.52,-198.76 657.26,-205.65" />
		</g>
		<!-- .internal/baseUnset.js&#45;&gt;.internal/castPath.js -->
		<g id="edge13" class="edge">
			<title>
				.internal/baseUnset.js:&#45;&gt;.internal/castPath.js:
			</title>
			<path fill="none" stroke="#757575" d="M800.55,-162.98C807.71,-160.43 814.68,-157.31 821,-153.5 841.77,-140.99 834.91,-122.5 857,-112.5 1011.26,-42.66 1072.32,-77.5 1238,-112.5 1264.85,-118.17 1293.2,-131.24 1313.51,-142.01" />
			<polygon fill="#757575" stroke="#757575" points="1312.06,-145.2 1322.51,-146.91 1315.4,-139.06 1312.06,-145.2" />
		</g>
		<!-- .internal/baseUnset.js&#45;&gt;.internal/toKey.js -->
		<g id="edge15" class="edge">
			<title>
				.internal/baseUnset.js:&#45;&gt;.internal/toKey.js:
			</title>
			<path fill="none" stroke="#757575" d="M791.76,-186.04C812.32,-189.66 835.61,-193.28 857,-195.5 1004.44,-210.81 1178.25,-214.05 1272.58,-214.58" />
			<polygon fill="#757575" stroke="#757575" points="1272.83,-218.08 1282.85,-214.63 1272.86,-211.08 1272.83,-218.08" />
		</g>
		<!-- .internal/parent.js -->
		<g id="node17" class="node">
			<title>
				.internal/parent.js
			</title>
			<path fill="none" stroke="#c6c5fe" d="M1014.33,-145C1014.33,-145 906.67,-145 906.67,-145 902.83,-145 899,-141.17 899,-137.33 899,-137.33 899,-129.67 899,-129.67 899,-125.83 902.83,-122 906.67,-122 906.67,-122 1014.33,-122 1014.33,-122 1018.17,-122 1022,-125.83 1022,-129.67 1022,-129.67 1022,-137.33 1022,-137.33 1022,-141.17 1018.17,-145 1014.33,-145" />
			<text text-anchor="middle" x="960.5" y="-129.8" font-family="Arial" font-size="14.00" fill="#c6c5fe">
				.internal/parent.js
			</text>
		</g>
		<!-- .internal/baseUnset.js&#45;&gt;.internal/parent.js -->
		<g id="edge14" class="edge">
			<title>
				.internal/baseUnset.js:&#45;&gt;.internal/parent.js:
			</title>
			<path fill="none" stroke="#757575" d="M796.7,-162.97C825.25,-157.8 859.05,-151.68 888.43,-146.36" />
			<polygon fill="#757575" stroke="#757575" points="889.4,-149.75 898.62,-144.52 888.16,-142.86 889.4,-149.75" />
		</g>
		<!-- last.js -->
		<g id="node18" class="node">
			<title>
				last.js
			</title>
			<path fill="none" stroke="#cfffac" d="M979.83,-186C979.83,-186 941.17,-186 941.17,-186 937.33,-186 933.5,-182.17 933.5,-178.33 933.5,-178.33 933.5,-170.67 933.5,-170.67 933.5,-166.83 937.33,-163 941.17,-163 941.17,-163 979.83,-163 979.83,-163 983.67,-163 987.5,-166.83 987.5,-170.67 987.5,-170.67 987.5,-178.33 987.5,-178.33 987.5,-182.17 983.67,-186 979.83,-186" />
			<text text-anchor="middle" x="960.5" y="-170.8" font-family="Arial" font-size="14.00" fill="#cfffac">
				last.js
			</text>
		</g>
		<!-- .internal/baseUnset.js&#45;&gt;last.js -->
		<g id="edge16" class="edge">
			<title>
				.internal/baseUnset.js:&#45;&gt;last.js:
			</title>
			<path fill="none" stroke="#757575" d="M808.11,-174.5C846.81,-174.5 892.25,-174.5 923.17,-174.5" />
			<polygon fill="#757575" stroke="#757575" points="923.47,-178 933.47,-174.5 923.47,-171 923.47,-178" />
		</g>
		<!-- .internal/parent.js&#45;&gt;.internal/baseGet.js -->
		<g id="edge22" class="edge">
			<title>
				.internal/parent.js:&#45;&gt;.internal/baseGet.js:
			</title>
			<path fill="none" stroke="#757575" d="M1020.86,-145.01C1035,-147.78 1050.04,-150.73 1064,-153.5 1076.12,-155.91 1089.02,-158.49 1101.48,-161" />
			<polygon fill="#757575" stroke="#757575" points="1100.84,-164.44 1111.34,-162.99 1102.23,-157.58 1100.84,-164.44" />
		</g>
		<!-- slice.js -->
		<g id="node26" class="node">
			<title>
				slice.js
			</title>
			<path fill="none" stroke="#cfffac" d="M1191.33,-145C1191.33,-145 1146.67,-145 1146.67,-145 1142.83,-145 1139,-141.17 1139,-137.33 1139,-137.33 1139,-129.67 1139,-129.67 1139,-125.83 1142.83,-122 1146.67,-122 1146.67,-122 1191.33,-122 1191.33,-122 1195.17,-122 1199,-125.83 1199,-129.67 1199,-129.67 1199,-137.33 1199,-137.33 1199,-141.17 1195.17,-145 1191.33,-145" />
			<text text-anchor="middle" x="1169" y="-129.8" font-family="Arial" font-size="14.00" fill="#cfffac">
				slice.js
			</text>
		</g>
		<!-- .internal/parent.js&#45;&gt;slice.js -->
		<g id="edge23" class="edge">
			<title>
				.internal/parent.js:&#45;&gt;slice.js:
			</title>
			<path fill="none" stroke="#757575" d="M1022.06,-133.5C1056.45,-133.5 1098.5,-133.5 1128.61,-133.5" />
			<polygon fill="#757575" stroke="#757575" points="1128.74,-137 1138.74,-133.5 1128.74,-130 1128.74,-137" />
		</g>
		<!-- .internal/isKey.js&#45;&gt;isSymbol.js -->
		<g id="edge20" class="edge">
			<title>
				.internal/isKey.js:&#45;&gt;isSymbol.js:
			</title>
			<path fill="none" stroke="#757575" d="M1589.63,-191.54C1620.97,-197.44 1659.29,-204.65 1689.85,-210.4" />
			<polygon fill="#757575" stroke="#757575" points="1689.42,-213.88 1699.89,-212.29 1690.71,-207 1689.42,-213.88" />
		</g>
		<!-- .internal/memoizeCapped.js -->
		<g id="node24" class="node">
			<title>
				.internal/memoizeCapped.js
			</title>
			<path fill="none" stroke="#c6c5fe" d="M1833.33,-151C1833.33,-151 1655.67,-151 1655.67,-151 1651.83,-151 1648,-147.17 1648,-143.33 1648,-143.33 1648,-135.67 1648,-135.67 1648,-131.83 1651.83,-128 1655.67,-128 1655.67,-128 1833.33,-128 1833.33,-128 1837.17,-128 1841,-131.83 1841,-135.67 1841,-135.67 1841,-143.33 1841,-143.33 1841,-147.17 1837.17,-151 1833.33,-151" />
			<text text-anchor="middle" x="1744.5" y="-135.8" font-family="Arial" font-size="14.00" fill="#c6c5fe">
				.internal/memoizeCapped.js
			</text>
		</g>
		<!-- .internal/stringToPath.js&#45;&gt;.internal/memoizeCapped.js -->
		<g id="edge24" class="edge">
			<title>
				.internal/stringToPath.js:&#45;&gt;.internal/memoizeCapped.js:
			</title>
			<path fill="none" stroke="#757575" d="M1612.25,-139.5C1620.58,-139.5 1629.14,-139.5 1637.69,-139.5" />
			<polygon fill="#757575" stroke="#757575" points="1637.71,-143 1647.71,-139.5 1637.71,-136 1637.71,-143" />
		</g>
		<!-- .internal/compareAscending.js -->
		<g id="node21" class="node">
			<title>
				.internal/compareAscending.js
			</title>
			<path fill="none" stroke="#c6c5fe" d="M1056.33,-307C1056.33,-307 864.67,-307 864.67,-307 860.83,-307 857,-303.17 857,-299.33 857,-299.33 857,-291.67 857,-291.67 857,-287.83 860.83,-284 864.67,-284 864.67,-284 1056.33,-284 1056.33,-284 1060.17,-284 1064,-287.83 1064,-291.67 1064,-291.67 1064,-299.33 1064,-299.33 1064,-303.17 1060.17,-307 1056.33,-307" />
			<text text-anchor="middle" x="960.5" y="-291.8" font-family="Arial" font-size="14.00" fill="#c6c5fe">
				.internal/compareAscending.js
			</text>
		</g>
		<!-- .internal/compareAscending.js&#45;&gt;isSymbol.js -->
		<g id="edge19" class="edge">
			<title>
				.internal/compareAscending.js:&#45;&gt;isSymbol.js:
			</title>
			<path fill="none" stroke="#757575" d="M1064.13,-285.66C1232.37,-269.52 1560.99,-238 1689.84,-225.65" />
			<polygon fill="#757575" stroke="#757575" points="1690.24,-229.12 1699.86,-224.69 1689.57,-222.16 1690.24,-229.12" />
		</g>
		<!-- .internal/getTag.js -->
		<g id="node23" class="node">
			<title>
				.internal/getTag.js
			</title>
			<path fill="none" stroke="#cfffac" d="M1997.33,-232C1997.33,-232 1884.67,-232 1884.67,-232 1880.83,-232 1877,-228.17 1877,-224.33 1877,-224.33 1877,-216.67 1877,-216.67 1877,-212.83 1880.83,-209 1884.67,-209 1884.67,-209 1997.33,-209 1997.33,-209 2001.17,-209 2005,-212.83 2005,-216.67 2005,-216.67 2005,-224.33 2005,-224.33 2005,-228.17 2001.17,-232 1997.33,-232" />
			<text text-anchor="middle" x="1941" y="-216.8" font-family="Arial" font-size="14.00" fill="#cfffac">
				.internal/getTag.js
			</text>
		</g>
		<!-- isSymbol.js&#45;&gt;.internal/getTag.js -->
		<g id="edge27" class="edge">
			<title>
				isSymbol.js:&#45;&gt;.internal/getTag.js:
			</title>
			<path fill="none" stroke="#757575" d="M1789.15,-220.5C1811.99,-220.5 1840.57,-220.5 1866.69,-220.5" />
			<polygon fill="#757575" stroke="#757575" points="1866.94,-224 1876.94,-220.5 1866.94,-217 1866.94,-224" />
		</g>
		<!-- memoize.js -->
		<g id="node25" class="node">
			<title>
				memoize.js
			</title>
			<path fill="none" stroke="#cfffac" d="M1977.83,-151C1977.83,-151 1904.17,-151 1904.17,-151 1900.33,-151 1896.5,-147.17 1896.5,-143.33 1896.5,-143.33 1896.5,-135.67 1896.5,-135.67 1896.5,-131.83 1900.33,-128 1904.17,-128 1904.17,-128 1977.83,-128 1977.83,-128 1981.67,-128 1985.5,-131.83 1985.5,-135.67 1985.5,-135.67 1985.5,-143.33 1985.5,-143.33 1985.5,-147.17 1981.67,-151 1977.83,-151" />
			<text text-anchor="middle" x="1941" y="-135.8" font-family="Arial" font-size="14.00" fill="#cfffac">
				memoize.js
			</text>
		</g>
		<!-- .internal/memoizeCapped.js&#45;&gt;memoize.js -->
		<g id="edge21" class="edge">
			<title>
				.internal/memoizeCapped.js:&#45;&gt;memoize.js:
			</title>
			<path fill="none" stroke="#757575" d="M1841.04,-139.5C1856.5,-139.5 1872.03,-139.5 1886.04,-139.5" />
			<polygon fill="#757575" stroke="#757575" points="1886.44,-143 1896.44,-139.5 1886.44,-136 1886.44,-143" />
		</g>
		<!-- pull.js -->
		<g id="node27" class="node">
			<title>
				pull.js
			</title>
			<path fill="none" stroke="#c6c5fe" d="M46.33,-126C46.33,-126 7.67,-126 7.67,-126 3.83,-126 0,-122.17 0,-118.33 0,-118.33 0,-110.67 0,-110.67 0,-106.83 3.83,-103 7.67,-103 7.67,-103 46.33,-103 46.33,-103 50.17,-103 54,-106.83 54,-110.67 54,-110.67 54,-118.33 54,-118.33 54,-122.17 50.17,-126 46.33,-126" />
			<text text-anchor="middle" x="27" y="-110.8" font-family="Arial" font-size="14.00" fill="#c6c5fe">
				pull.js
			</text>
		</g>
		<!-- pullAll.js -->
		<g id="node28" class="node">
			<title>
				pullAll.js
			</title>
			<path fill="none" stroke="#c6c5fe" d="M164.83,-126C164.83,-126 112.17,-126 112.17,-126 108.33,-126 104.5,-122.17 104.5,-118.33 104.5,-118.33 104.5,-110.67 104.5,-110.67 104.5,-106.83 108.33,-103 112.17,-103 112.17,-103 164.83,-103 164.83,-103 168.67,-103 172.5,-106.83 172.5,-110.67 172.5,-110.67 172.5,-118.33 172.5,-118.33 172.5,-122.17 168.67,-126 164.83,-126" />
			<text text-anchor="middle" x="138.5" y="-110.8" font-family="Arial" font-size="14.00" fill="#c6c5fe">
				pullAll.js
			</text>
		</g>
		<!-- pull.js&#45;&gt;pullAll.js -->
		<g id="edge28" class="edge">
			<title>
				pull.js:&#45;&gt;pullAll.js:
			</title>
			<path fill="none" stroke="#757575" d="M54.23,-114.5C66.23,-114.5 80.76,-114.5 94.31,-114.5" />
			<polygon fill="#757575" stroke="#757575" points="94.42,-118 104.42,-114.5 94.42,-111 94.42,-118" />
		</g>
		<!-- pullAll.js&#45;&gt;.internal/basePullAll.js -->
		<g id="edge29" class="edge">
			<title>
				pullAll.js:&#45;&gt;.internal/basePullAll.js:
			</title>
			<path fill="none" stroke="#757575" d="M172.55,-106C193.23,-100.69 220.37,-93.71 244.21,-87.58" />
			<polygon fill="#757575" stroke="#757575" points="245.38,-90.9 254.2,-85.02 243.64,-84.12 245.38,-90.9" />
		</g>
		<!-- pullAllBy.js -->
		<g id="node29" class="node">
			<title>
				pullAllBy.js
			</title>
			<path fill="none" stroke="#c6c5fe" d="M173.33,-85C173.33,-85 103.67,-85 103.67,-85 99.83,-85 96,-81.17 96,-77.33 96,-77.33 96,-69.67 96,-69.67 96,-65.83 99.83,-62 103.67,-62 103.67,-62 173.33,-62 173.33,-62 177.17,-62 181,-65.83 181,-69.67 181,-69.67 181,-77.33 181,-77.33 181,-81.17 177.17,-85 173.33,-85" />
			<text text-anchor="middle" x="138.5" y="-69.8" font-family="Arial" font-size="14.00" fill="#c6c5fe">
				pullAllBy.js
			</text>
		</g>
		<!-- pullAllBy.js&#45;&gt;.internal/basePullAll.js -->
		<g id="edge30" class="edge">
			<title>
				pullAllBy.js:&#45;&gt;.internal/basePullAll.js:
			</title>
			<path fill="none" stroke="#757575" d="M181.41,-73.5C191.16,-73.5 201.89,-73.5 212.79,-73.5" />
			<polygon fill="#757575" stroke="#757575" points="212.82,-77 222.82,-73.5 212.82,-70 212.82,-77" />
		</g>
		<!-- pullAllWith.js -->
		<g id="node30" class="node">
			<title>
				pullAllWith.js
			</title>
			<path fill="none" stroke="#c6c5fe" d="M179.33,-44C179.33,-44 97.67,-44 97.67,-44 93.83,-44 90,-40.17 90,-36.33 90,-36.33 90,-28.67 90,-28.67 90,-24.83 93.83,-21 97.67,-21 97.67,-21 179.33,-21 179.33,-21 183.17,-21 187,-24.83 187,-28.67 187,-28.67 187,-36.33 187,-36.33 187,-40.17 183.17,-44 179.33,-44" />
			<text text-anchor="middle" x="138.5" y="-28.8" font-family="Arial" font-size="14.00" fill="#c6c5fe">
				pullAllWith.js
			</text>
		</g>
		<!-- pullAllWith.js&#45;&gt;.internal/basePullAll.js -->
		<g id="edge31" class="edge">
			<title>
				pullAllWith.js:&#45;&gt;.internal/basePullAll.js:
			</title>
			<path fill="none" stroke="#757575" d="M184.35,-44.03C203.04,-48.83 224.9,-54.45 244.49,-59.49" />
			<polygon fill="#757575" stroke="#757575" points="243.65,-62.89 254.21,-61.99 245.39,-56.11 243.65,-62.89" />
		</g>
		<!-- pullAt.js -->
		<g id="node31" class="node">
			<title>
				pullAt.js
			</title>
			<path fill="none" stroke="#c6c5fe" d="M325.33,-227C325.33,-227 274.67,-227 274.67,-227 270.83,-227 267,-223.17 267,-219.33 267,-219.33 267,-211.67 267,-211.67 267,-207.83 270.83,-204 274.67,-204 274.67,-204 325.33,-204 325.33,-204 329.17,-204 333,-207.83 333,-211.67 333,-211.67 333,-219.33 333,-219.33 333,-223.17 329.17,-227 325.33,-227" />
			<text text-anchor="middle" x="300" y="-211.8" font-family="Arial" font-size="14.00" fill="#c6c5fe">
				pullAt.js
			</text>
		</g>
		<!-- pullAt.js&#45;&gt;.internal/baseAt.js -->
		<g id="edge32" class="edge">
			<title>
				pullAt.js:&#45;&gt;.internal/baseAt.js:
			</title>
			<path fill="none" stroke="#757575" d="M333.04,-221.66C361.17,-227.07 403.06,-235.13 438.92,-242.02" />
			<polygon fill="#757575" stroke="#757575" points="438.37,-245.48 448.85,-243.93 439.69,-238.61 438.37,-245.48" />
		</g>
		<!-- pullAt.js&#45;&gt;map.js -->
		<g id="edge36" class="edge">
			<title>
				pullAt.js:&#45;&gt;map.js:
			</title>
			<path fill="none" stroke="#757575" d="M318.46,-203.87C339.87,-190.12 377.67,-167.48 413,-154.5 431.3,-147.78 452.44,-143.07 470.22,-139.91" />
			<polygon fill="#757575" stroke="#757575" points="470.96,-143.34 480.25,-138.23 469.81,-136.43 470.96,-143.34" />
		</g>
		<!-- pullAt.js&#45;&gt;.internal/basePullAt.js -->
		<g id="edge33" class="edge">
			<title>
				pullAt.js:&#45;&gt;.internal/basePullAt.js:
			</title>
			<path fill="none" stroke="#757575" d="M333.04,-209.34C361.17,-203.93 403.06,-195.87 438.92,-188.98" />
			<polygon fill="#757575" stroke="#757575" points="439.69,-192.39 448.85,-187.07 438.37,-185.52 439.69,-192.39" />
		</g>
		<!-- pullAt.js&#45;&gt;.internal/isIndex.js -->
		<g id="edge35" class="edge">
			<title>
				pullAt.js:&#45;&gt;.internal/isIndex.js:
			</title>
			<path fill="none" stroke="#757575" d="M333.32,-215.5C401.63,-215.5 562.19,-215.5 657.09,-215.5" />
			<polygon fill="#757575" stroke="#757575" points="657.19,-219 667.19,-215.5 657.19,-212 657.19,-219" />
		</g>
		<!-- pullAt.js&#45;&gt;.internal/compareAscending.js -->
		<g id="edge34" class="edge">
			<title>
				pullAt.js:&#45;&gt;.internal/compareAscending.js:
			</title>
			<path fill="none" stroke="#757575" d="M316.67,-227.14C337.45,-241.81 375.84,-266.35 413,-276.5 558.75,-316.33 734.51,-313.98 846.62,-306.5" />
			<polygon fill="#757575" stroke="#757575" points="847.2,-309.97 856.93,-305.78 846.72,-302.98 847.2,-309.97" />
		</g>
	</g>
</svg>
