<?xml version="1.0" standalone="no"?><!DOCTYPE svg PUBLIC "-//W3C//DTD SVG 1.1//EN" "http://www.w3.org/Graphics/SVG/1.1/DTD/svg11.dtd"><svg t="1592120218932" class="icon" viewBox="0 0 1024 1024" version="1.1" xmlns="http://www.w3.org/2000/svg" p-id="9785" data-spm-anchor-id="a313x.7781069.0.i87" width="128" height="128" xmlns:xlink="http://www.w3.org/1999/xlink"><defs><style type="text/css"></style></defs><path d="M508.7 927.6c-56.2 0-110.6-11-161.9-32.7-49.5-21-94-50.9-132.2-89.1-38.2-38.2-68.2-82.7-89.1-132.2-21.7-51.3-32.7-105.8-32.7-161.9 0-56.2 11-110.6 32.7-161.9 21-49.5 50.9-94 89.1-132.2 38.2-38.2 82.7-68.2 132.2-89.1 51.3-21.7 105.8-32.7 161.9-32.7s110.6 11 161.9 32.7c49.5 21 94 50.9 132.2 89.1 38.2 38.2 68.2 82.7 89.1 132.2 21.7 51.3 32.7 105.8 32.7 161.9 0 56.2-11 110.6-32.7 161.9-21 49.5-50.9 94-89.1 132.2-38.2 38.2-82.7 68.2-132.2 89.1-51.2 21.7-105.7 32.7-161.9 32.7z m0-800c-51.8 0-102.1 10.2-149.5 30.2-45.7 19.3-86.8 47-122.1 82.3s-63 76.3-82.3 122.1c-20 47.3-30.2 97.6-30.2 149.5 0 51.8 10.2 102.1 30.2 149.5 19.3 45.7 47 86.8 82.3 122.1s76.3 63 122.1 82.3c47.3 20 97.6 30.2 149.5 30.2s102.1-10.2 149.5-30.2c45.7-19.3 86.8-47 122.1-82.3s63-76.3 82.3-122.1c20-47.3 30.2-97.6 30.2-149.5 0-51.8-10.2-102.1-30.2-149.5-19.3-45.7-47-86.8-82.3-122.1s-76.3-63-122.1-82.3c-47.3-20-97.6-30.2-149.5-30.2z" fill="" p-id="9786" data-spm-anchor-id="a313x.7781069.0.i88" class=""></path><path d="M708.7 565.7H308.9l-4.1-245.8c0-18.7 20.7-30.3 37-20.7L509.9 398l165.7-98.6c16.3-9.7 37.1 1.9 37.1 20.7l-4 245.6z" fill="#C7C8CA" p-id="9787"></path><path d="M724.5 581.7H293.2l-4.3-261.8c0-14.5 7.6-27.5 20.2-34.8 12.8-7.3 28.1-7.3 40.9 0.2l159.9 94.1 157.6-93.7c12.8-7.6 28.1-7.7 41-0.4 12.7 7.2 20.3 20.3 20.3 34.8v0.3l-4.3 261.3z m-399.9-32H693l3.8-229.7c0-4-2.6-6-4.2-6.9-1.3-0.8-4.9-2.3-8.8 0.1L510 416.6 333.7 312.9c-3.9-2.3-7.5-0.8-8.8 0-1.5 0.9-4.1 2.9-4.1 6.9l3.8 229.9z" fill="" p-id="9788"></path><path d="M354.2 355v61" fill="#F78B31" p-id="9789"></path><path d="M354.2 432c-8.8 0-16-7.2-16-16v-61c0-8.8 7.2-16 16-16s16 7.2 16 16v61c0 8.8-7.1 16-16 16z" fill="#F9AC89" p-id="9790"></path><path d="M667.1 355v61" fill="#FFA045" p-id="9791"></path><path d="M667.1 432c-8.8 0-16-7.2-16-16v-61c0-8.8 7.2-16 16-16s16 7.2 16 16v61c0 8.8-7.1 16-16 16z" fill="#F9AC89" p-id="9792"></path><path d="M560 730H459.4c-74.1 0-134.7-60.6-134.7-134.7V494.7c0-74.1 60.6-134.7 134.7-134.7H560c74.1 0 134.7 60.6 134.7 134.7v100.6c0 74.1-60.6 134.7-134.7 134.7z" fill="#867C75" p-id="9793" data-spm-anchor-id="a313x.7781069.0.i89" class="selected"></path><path d="M560.1 710H459.4c-74.1 0-134.7-60.6-134.7-134.7V474.7c0-74.1 60.6-134.7 134.7-134.7H560c74.1 0 134.7 60.6 134.7 134.7v100.6c0 74.1-60.6 134.7-134.6 134.7z" fill="#ffffff" p-id="9794" data-spm-anchor-id="a313x.7781069.0.i86" class=""></path><path d="M325.7 489v7.4c0-74.1 60.6-134.7 134.7-134.7H561c74.1 0 134.7 60.6 134.7 134.7V489c0-74.1-60.6-134.7-134.7-134.7H460.4c-74.1 0-134.7 60.6-134.7 134.7z" fill="#C4B8AE" p-id="9795"></path><path d="M508.7 455.8c-8.8 0-16-7.2-16-16v-77.5c0-8.8 7.2-16 16-16s16 7.2 16 16v77.5c0 8.8-7.1 16-16 16zM550.1 435.8c-8.8 0-16-7.2-16-16v-57.5c0-8.8 7.2-16 16-16s16 7.2 16 16v57.5c0 8.8-7.2 16-16 16zM467.4 435.8c-8.8 0-16-7.2-16-16v-57.5c0-8.8 7.2-16 16-16s16 7.2 16 16v57.5c0 8.8-7.2 16-16 16z" fill="#86827F" p-id="9796"></path><path d="M564.1 756H455.3c-43 0-83.5-16.9-114.1-47.5-30.6-30.6-47.5-71.1-47.5-114.1V485.6c0-43 16.9-83.5 47.5-114.1S412.3 324 455.3 324h108.8c43 0 83.5 16.9 114.1 47.5 30.6 30.6 47.5 71.1 47.5 114.1v108.8c0 43-16.9 83.5-47.5 114.1-30.5 30.6-71.1 47.5-114.1 47.5zM455.3 356c-34.5 0-67 13.5-91.5 38.1s-38.1 57.1-38.1 91.5v108.8c0 34.5 13.5 67 38.1 91.5 24.6 24.6 57.1 38.1 91.5 38.1h108.8c34.5 0 67-13.5 91.5-38.1 24.6-24.6 38.1-57.1 38.1-91.5V485.6c0-34.5-13.5-67-38.1-91.5-24.6-24.6-57.1-38.1-91.5-38.1H455.3z" fill="" p-id="9797"></path><path d="M439.5 496m-32 0a32 32 0 1 0 64 0 32 32 0 1 0-64 0Z" fill="#FFFFFF" p-id="9798"></path><path d="M579.8 496m-32 0a32 32 0 1 0 64 0 32 32 0 1 0-64 0Z" fill="#FFFFFF" p-id="9799"></path><path d="M529.4 567.8l7.9-13.7c5.5-9.6-1.4-21.5-12.4-21.5h-28.3c-11 0-17.9 11.9-12.4 21.5l7.9 13.7c8.3 14.3 29 14.3 37.3 0z" fill="" p-id="9800"></path><path d="M239.5 646.6c-4.9 0-9.7-2.2-12.8-6.4-5.3-7.1-3.8-17.1 3.3-22.4 44.5-33.2 99.4-50 154.7-47.3 8.8 0.4 15.6 7.9 15.2 16.8-0.4 8.8-7.9 15.6-16.8 15.2-47.8-2.4-95.4 12.2-133.9 41-3 2-6.3 3.1-9.7 3.1zM293.1 695.7c-4.9 0-9.7-2.2-12.8-6.4-5.3-7.1-3.8-17.1 3.3-22.4 29.1-21.7 65-32.7 101.1-30.9 8.8 0.4 15.6 7.9 15.2 16.8-0.4 8.8-8 15.6-16.8 15.2-28.7-1.4-57.2 7.3-80.4 24.6-2.9 2-6.2 3.1-9.6 3.1zM773.8 646.6c-3.3 0-6.7-1-9.6-3.2-38.6-28.8-86.1-43.3-133.9-41-8.8 0.4-16.3-6.4-16.8-15.2-0.4-8.8 6.4-16.3 15.2-16.8 55.2-2.7 110.1 14.1 154.7 47.3 7.1 5.3 8.5 15.3 3.3 22.4-3.2 4.2-8 6.5-12.9 6.5zM720.2 695.7c-3.3 0-6.7-1-9.6-3.2-23.1-17.3-51.7-26-80.4-24.6-8.8 0.5-16.3-6.4-16.8-15.2s6.4-16.3 15.2-16.8c36.1-1.8 72 9.2 101.1 30.9 7.1 5.3 8.5 15.3 3.3 22.4-3.1 4.2-7.9 6.5-12.8 6.5z" fill="" p-id="9801"></path><path d="M439.7 496.3m-32.3 0a32.3 32.3 0 1 0 64.6 0 32.3 32.3 0 1 0-64.6 0Z" fill="" p-id="9802"></path><path d="M426.6 482.6m-9.3 0a9.3 9.3 0 1 0 18.6 0 9.3 9.3 0 1 0-18.6 0Z" fill="#FFFFFF" p-id="9803"></path><path d="M451.2 512.1m-9.3 0a9.3 9.3 0 1 0 18.6 0 9.3 9.3 0 1 0-18.6 0Z" fill="#FFFFFF" p-id="9804"></path><path d="M579.6 496.3m-32.3 0a32.3 32.3 0 1 0 64.6 0 32.3 32.3 0 1 0-64.6 0Z" fill="" p-id="9805"></path><path d="M566.6 482.6m-9.3 0a9.3 9.3 0 1 0 18.6 0 9.3 9.3 0 1 0-18.6 0Z" fill="#FFFFFF" p-id="9806"></path><path d="M591.2 512.1m-9.3 0a9.3 9.3 0 1 0 18.6 0 9.3 9.3 0 1 0-18.6 0Z" fill="#FFFFFF" p-id="9807"></path><path d="M488.7 628.9c-21.7 0-39.3-17.6-39.3-39.3 0-8.8 7.2-16 16-16s16 7.2 16 16c0 4 3.3 7.3 7.3 7.3s7.3-3.3 7.3-7.3v-23.9c0-8.8 7.2-16 16-16s16 7.2 16 16v23.9c0 21.7-17.7 39.3-39.3 39.3z" fill="" p-id="9808"></path><path d="M539.5 631.1c-23.7 0-43-19.3-43-43v-31.9c0-8.8 7.2-16 16-16s16 7.2 16 16v31.9c0 6 5.1 11 11 11s11-5.1 11-11c0-8.8 7.2-16 16-16s16 7.2 16 16c0.1 23.7-19.3 43-43 43z" fill="" p-id="9809"></path></svg>