<?xml version="1.0" standalone="no"?><!DOCTYPE svg PUBLIC "-//W3C//DTD SVG 1.1//EN" "http://www.w3.org/Graphics/SVG/1.1/DTD/svg11.dtd"><svg t="1579227202700" class="icon" viewBox="0 0 1024 1024" version="1.1" xmlns="http://www.w3.org/2000/svg" p-id="2363" width="128" height="128" xmlns:xlink="http://www.w3.org/1999/xlink"><defs><style type="text/css"></style></defs><path d="M508.7 927.6c-56.2 0-110.6-11-161.9-32.7-49.5-21-94-50.9-132.2-89.1-38.2-38.2-68.2-82.7-89.1-132.2-21.7-51.3-32.7-105.8-32.7-161.9 0-56.2 11-110.6 32.7-161.9 21-49.5 50.9-94 89.1-132.2 38.2-38.2 82.7-68.2 132.2-89.1 51.3-21.7 105.8-32.7 161.9-32.7s110.6 11 161.9 32.7c49.5 21 94 50.9 132.2 89.1 38.2 38.2 68.2 82.7 89.1 132.2 21.7 51.3 32.7 105.8 32.7 161.9 0 56.2-11 110.6-32.7 161.9-21 49.5-50.9 94-89.1 132.2-38.2 38.2-82.7 68.2-132.2 89.1-51.2 21.7-105.7 32.7-161.9 32.7z m0-800c-51.8 0-102.1 10.2-149.5 30.2-45.7 19.3-86.8 47-122.1 82.3s-63 76.3-82.3 122.1c-20 47.3-30.2 97.6-30.2 149.5 0 51.8 10.2 102.1 30.2 149.5 19.3 45.7 47 86.8 82.3 122.1s76.3 63 122.1 82.3c47.3 20 97.6 30.2 149.5 30.2s102.1-10.2 149.5-30.2c45.7-19.3 86.8-47 122.1-82.3s63-76.3 82.3-122.1c20-47.3 30.2-97.6 30.2-149.5 0-51.8-10.2-102.1-30.2-149.5-19.3-45.7-47-86.8-82.3-122.1s-76.3-63-122.1-82.3c-47.3-20-97.6-30.2-149.5-30.2z" fill="" p-id="2364"></path><path d="M710.1 565.7H309.9l-4.1-245.8c0-18.7 20.7-30.3 37.1-20.7L511.1 398 677 299.5c16.3-9.7 37.2 1.9 37.2 20.7l-4.1 245.5z" fill="#FFAC52" p-id="2365"></path><path d="M725.8 581.7H294.2l-4.3-261.8c0-14.5 7.6-27.5 20.2-34.7 12.9-7.4 28.2-7.3 40.9 0.2l160.1 94.1 157.8-93.7c12.8-7.6 28.1-7.7 41-0.4 12.7 7.2 20.3 20.3 20.3 34.8v0.3l-4.4 261.2z m-400.2-32h368.7l3.8-229.7c0-4-2.6-6-4.2-6.9-1.3-0.8-4.9-2.3-8.8 0.1l-174 103.4L334.8 313c-4-2.3-7.5-0.8-8.8 0-1.5 0.9-4.1 2.9-4.1 6.9l3.7 229.8z" fill="" p-id="2366"></path><path d="M355.2 432c-8.8 0-16-7.2-16-16v-61c0-8.8 7.2-16 16-16s16 7.2 16 16v61c0 8.8-7.1 16-16 16zM667.1 432c-8.8 0-16-7.2-16-16v-61c0-8.8 7.2-16 16-16s16 7.2 16 16v61c0 8.8-7.1 16-16 16z" fill="#AA6C32" p-id="2367"></path><path d="M562.8 735H462.2c-74.1 0-134.7-60.6-134.7-134.7V499.7c0-74.1 60.6-134.7 134.7-134.7h100.6c74.1 0 134.7 60.6 134.7 134.7v100.6c0 74.1-60.6 134.7-134.7 134.7z" fill="#F27D27" p-id="2368"></path><path d="M560.4 706H459.8c-74.1 0-134.7-60.6-134.7-134.7V470.7c0-74.1 60.6-134.7 134.7-134.7h100.6c74.1 0 134.7 60.6 134.7 134.7v100.6c0 74.1-60.6 134.7-134.7 134.7z" fill="#FFAC52" p-id="2369"></path><path d="M324.7 486v7.4c0-74.1 60.6-134.7 134.7-134.7H560c74.1 0 134.7 60.6 134.7 134.7V486c0-74.1-60.6-134.7-134.7-134.7H459.4c-74.1 0-134.7 60.6-134.7 134.7z" fill="#FFBF00" p-id="2370"></path><path d="M509.7 455.8c-8.8 0-16-7.2-16-16v-77.5c0-8.8 7.2-16 16-16s16 7.2 16 16v77.5c0 8.8-7.1 16-16 16zM551.1 435.8c-8.8 0-16-7.2-16-16v-57.5c0-8.8 7.2-16 16-16s16 7.2 16 16v57.5c0 8.8-7.2 16-16 16zM468.4 435.8c-8.8 0-16-7.2-16-16v-57.5c0-8.8 7.2-16 16-16s16 7.2 16 16v57.5c0 8.8-7.2 16-16 16z" fill="#FF8F3B" p-id="2371"></path><path d="M565.1 756H456.3c-43 0-83.5-16.9-114.1-47.5-30.6-30.6-47.5-71.1-47.5-114.1V485.6c0-43 16.9-83.5 47.5-114.1S413.3 324 456.3 324h108.8c43 0 83.5 16.9 114.1 47.5 30.6 30.6 47.5 71.1 47.5 114.1v108.8c0 43-16.9 83.5-47.5 114.1-30.5 30.6-71.1 47.5-114.1 47.5zM456.3 356c-34.5 0-67 13.5-91.5 38.1s-38.1 57.1-38.1 91.5v108.8c0 34.5 13.5 67 38.1 91.5 24.6 24.6 57.1 38.1 91.5 38.1h108.8c34.5 0 67-13.5 91.5-38.1 24.6-24.6 38.1-57.1 38.1-91.5V485.6c0-34.5-13.5-67-38.1-91.5-24.6-24.6-57.1-38.1-91.5-38.1H456.3z" fill="" p-id="2372"></path><path d="M512.1 609.2c-8.8 0-16-7.2-16-16v-48.9c0-8.8 7.2-16 16-16s16 7.2 16 16v48.9c0 8.9-7.2 16-16 16z" fill="" p-id="2373"></path><path d="M511.5 627c-11.5 0-23-2.2-34-6.5-8.2-3.2-12.3-12.5-9.1-20.7 3.2-8.2 12.5-12.3 20.7-9.1 15.2 6 31.8 5.6 46.8-0.9 8.1-3.5 17.5 0.2 21.1 8.3 3.5 8.1-0.2 17.5-8.3 21.1-11.9 5.2-24.6 7.8-37.2 7.8z" fill="" p-id="2374"></path><path d="M430.7 496.1m-32 0a32 32 0 1 0 64 0 32 32 0 1 0-64 0Z" fill="#FFFFFF" p-id="2375"></path><path d="M599.6 496.1m-32 0a32 32 0 1 0 64 0 32 32 0 1 0-64 0Z" fill="#FFFFFF" p-id="2376"></path><path d="M526.9 557.5l22.5-39c3.1-5.3-0.8-12-6.9-12h-58.9c-6.2 0-10 6.7-6.9 12l22.5 39c6.1 10.7 21.5 10.7 27.7 0zM240.5 646.6c-4.9 0-9.7-2.2-12.8-6.4-5.3-7.1-3.8-17.1 3.3-22.4 44.5-33.2 99.4-50 154.7-47.3 8.8 0.4 15.6 7.9 15.2 16.8-0.4 8.8-7.9 15.6-16.8 15.2-47.8-2.4-95.4 12.2-133.9 41-3 2-6.3 3.1-9.7 3.1zM294.1 695.7c-4.9 0-9.7-2.2-12.8-6.4-5.3-7.1-3.8-17.1 3.3-22.4 29.1-21.7 65-32.7 101.1-30.9 8.8 0.4 15.6 7.9 15.2 16.8-0.4 8.8-8 15.6-16.8 15.2-28.7-1.4-57.2 7.3-80.4 24.6-2.9 2-6.2 3.1-9.6 3.1zM774.8 646.6c-3.3 0-6.7-1-9.6-3.2-38.6-28.8-86.1-43.3-133.9-41-8.8 0.4-16.3-6.4-16.8-15.2-0.4-8.8 6.4-16.3 15.2-16.8 55.2-2.7 110.1 14.1 154.7 47.3 7.1 5.3 8.5 15.3 3.3 22.4-3.2 4.2-8 6.5-12.9 6.5zM721.2 695.7c-3.3 0-6.7-1-9.6-3.2-23.1-17.3-51.7-26-80.4-24.6-8.8 0.5-16.3-6.4-16.8-15.2s6.4-16.3 15.2-16.8c36.1-1.8 72 9.2 101.1 30.9 7.1 5.3 8.5 15.3 3.3 22.4-3.1 4.2-7.9 6.5-12.8 6.5z" fill="" p-id="2377"></path><path d="M408.8 496.1a21.9 27.3 0 1 0 43.8 0 21.9 27.3 0 1 0-43.8 0Z" fill="" p-id="2378"></path><path d="M446.8 485.1m-5.9 0a5.9 5.9 0 1 0 11.8 0 5.9 5.9 0 1 0-11.8 0Z" fill="#FFFFFF" p-id="2379"></path><path d="M577.7 496.5a21.9 27.3 0 1 0 43.8 0 21.9 27.3 0 1 0-43.8 0Z" fill="" p-id="2380"></path><path d="M615.7 485.4m-5.9 0a5.9 5.9 0 1 0 11.8 0 5.9 5.9 0 1 0-11.8 0Z" fill="#FFFFFF" p-id="2381"></path></svg>